<?xml version="1.0" encoding="utf-8"?>
<!-- Uploaded to: SVG Repo, www.svgrepo.com, Generator: SVG Repo Mixer Tools -->
<svg fill="#000000" width="800px" height="800px" viewBox="0 0 32 32" version="1.1" xmlns="http://www.w3.org/2000/svg">
<title>microsoftoffice</title>
<path d="M25.925 25.583v-19.198c0-0.005 0-0.011 0-0.016 0-0.22-0.075-0.422-0.202-0.583l0.002 0.002c-0.133-0.166-0.314-0.289-0.521-0.348l-0.007-0.002-4.234-1.162q-0.496-0.139-0.992-0.287-0.496-0.146-0.992-0.27v24.593l6.218-1.783c0.215-0.059 0.396-0.183 0.526-0.348l0.002-0.002c0.125-0.158 0.201-0.36 0.201-0.579 0-0.006-0-0.012-0-0.018v0.001zM27.909 6.385v19.198c0 0.008 0 0.018 0 0.028 0 1.343-0.903 2.474-2.135 2.82l-0.021 0.005-8.607 2.467c-0.102 0.029-0.225 0.053-0.351 0.068l-0.012 0.001c-0.109 0.015-0.236 0.023-0.365 0.024h-0.001c-0.011 0-0.023 0-0.035 0-0.309 0-0.606-0.048-0.885-0.137l0.021 0.006c-0.316-0.108-0.587-0.231-0.843-0.377l0.023 0.012-5.63-3.179c-0.202-0.11-0.367-0.265-0.485-0.452l-0.003-0.005c-0.112-0.179-0.179-0.396-0.179-0.628 0-0.005 0-0.011 0-0.016v0.001c0-0.001 0-0.003 0-0.004 0-0.718 0.582-1.299 1.299-1.299 0.001 0 0.003 0 0.004 0h7.286v-17.709l-5.473 1.953c-0.446 0.156-0.813 0.443-1.065 0.815l-0.005 0.007c-0.252 0.357-0.402 0.801-0.402 1.28 0 0.002 0 0.005 0 0.008v-0 10.095c0 0.004 0 0.009 0 0.015 0 0.835-0.466 1.561-1.152 1.933l-0.012 0.006-2.589 1.412c-0.206 0.114-0.452 0.182-0.713 0.185h-0.001c-0.002 0-0.004 0-0.007 0-0.819 0-1.483-0.664-1.483-1.483 0-0.002 0-0.004 0-0.006v0-14.221c0.002-0.549 0.155-1.062 0.42-1.5l-0.007 0.013c0.262-0.462 0.633-0.836 1.078-1.093l0.014-0.007 9.244-5.257c0.192-0.107 0.414-0.197 0.647-0.258l0.020-0.004c0.214-0.059 0.459-0.093 0.712-0.094h0c0.007-0 0.015-0 0.023-0 0.16 0 0.316 0.014 0.468 0.041l-0.016-0.002c0.181 0.035 0.334 0.075 0.483 0.124l-0.028-0.008 8.608 2.373c1.254 0.362 2.156 1.499 2.156 2.847 0 0.002 0 0.004 0 0.007v-0z"></path>
</svg>